<svg xmlns="http://www.w3.org/2000/svg" width="25" height="19" viewBox="0 0 25 19" fill="none">
<path d="M25 9.77003C25 9.67183 25 9.47545 25 9.37726C25 9.27907 24.9194 9.27907 24.9194 9.18088L17.5 0.147287C17.3387 -0.0490956 17.0968 -0.0490956 16.9355 0.147287C16.7742 0.343669 16.7742 0.638243 16.9355 0.834625L23.629 8.9845L0.403226 8.9845C0.16129 9.08269 0 9.27907 0 9.57364C0 9.86822 0.16129 10.0646 0.403226 10.0646L23.629 10.0646L16.9355 18.2145C16.7742 18.4109 16.7742 18.7054 16.9355 18.9018C17.0161 19 17.0968 19 17.2581 19C17.4194 19 17.5 19 17.5806 18.9018L25 9.86822C24.9194 9.86822 24.9194 9.86822 25 9.77003Z" fill="white"/>
</svg>
